<svg width="24" height="24" viewBox="0 0 24 24" fill="none" xmlns="http://www.w3.org/2000/svg">
<path d="M12 4C7.58173 4 4.00001 7.58172 4.00001 12C4.00001 16.4183 7.58173 20 12 20C16.0803 20 19.4471 16.9453 19.9384 12.998C20.0066 12.45 19.5523 12 19 12C18.4477 12 18.0087 12.4511 17.9177 12.9958C17.4434 15.8356 14.9744 18 12 18C8.68628 18 5.99999 15.3137 5.99999 12C5.99999 8.68629 8.68628 6 12 6C13.777 6 15.3736 6.7725 16.4722 8H15C14.4477 8 14 8.44772 14 9C14 9.55228 14.4477 10 15 10H19C19.0345 10 19.0686 9.99825 19.1022 9.99484C19.6065 9.94363 20 9.51777 20 9V5C20 4.44772 19.5523 4 19 4C18.4477 4 18 4.44772 18 5V6.70834C16.5341 5.0475 14.3894 4 12 4Z" fill="#191F28"/>
</svg>
