<svg width="24" height="24" viewBox="0 0 24 24" fill="none" xmlns="http://www.w3.org/2000/svg">
<rect width="24" height="24" rx="12" fill="#333D4B"/>
<g clip-path="url(#clip0_223_1277)">
<path d="M17.6182 8.7726C17.5327 8.8356 16.0231 9.6434 16.0231 11.4396C16.0231 13.5172 17.944 14.2522 18.0015 14.2704C17.9926 14.3152 17.6963 15.277 16.9887 16.257C16.3577 17.1194 15.6988 17.9804 14.6963 17.9804C13.6939 17.9804 13.4359 17.4274 12.2786 17.4274C11.1509 17.4274 10.7499 17.9986 9.83292 17.9986C8.91597 17.9986 8.27617 17.2006 7.54054 16.2206C6.68845 15.0698 6 13.282 6 11.5852C6 8.8636 7.86339 7.4202 9.6973 7.4202C10.6717 7.4202 11.484 8.0278 12.0958 8.0278C12.6781 8.0278 13.5862 7.3838 14.6948 7.3838C15.115 7.3838 16.6246 7.4202 17.6182 8.7726V8.7726ZM14.1686 6.2316C14.627 5.715 14.9514 4.9982 14.9514 4.2814C14.9514 4.182 14.9425 4.0812 14.9233 4C14.1774 4.0266 13.2899 4.4718 12.7548 5.0612C12.3346 5.5148 11.9425 6.2316 11.9425 6.9582C11.9425 7.0674 11.9617 7.1766 11.9705 7.2116C12.0177 7.22 12.0943 7.2298 12.171 7.2298C12.8403 7.2298 13.6821 6.8042 14.1686 6.2316Z" fill="white"/>
</g>
<defs>
<clipPath id="clip0_223_1277">
<rect width="12" height="14" fill="white" transform="translate(6 4)"/>
</clipPath>
</defs>
</svg>
