<svg width="40" height="40" viewBox="0 0 40 40" fill="none" xmlns="http://www.w3.org/2000/svg">
<rect width="40" height="40" rx="20" fill="#191F28" fill-opacity="0.2"/>
<path d="M14.0177 20.2591C13.9579 19.9447 14.0496 19.6072 14.2929 19.3639C14.2951 19.3617 14.2973 19.3595 14.2996 19.3573L21.364 12.2929C21.7545 11.9024 22.3877 11.9024 22.7782 12.2929C23.1687 12.6834 23.1687 13.3166 22.7782 13.7071L16.4142 20.071L22.7782 26.435C23.1687 26.8255 23.1687 27.4587 22.7782 27.8492C22.3876 28.2397 21.7545 28.2397 21.364 27.8492L14.2984 20.7836C14.2966 20.7818 14.2947 20.78 14.2929 20.7782C14.1457 20.631 14.054 20.4493 14.0177 20.2591Z" fill="white"/>
</svg>
