<svg width="40" height="40" viewBox="0 0 40 40" fill="none" xmlns="http://www.w3.org/2000/svg">
<rect width="40" height="40" rx="20" fill="#191F28" fill-opacity="0.2"/>
<path d="M25.9823 20.2591C26.0421 19.9447 25.9504 19.6072 25.7071 19.3639C25.7049 19.3617 25.7027 19.3595 25.7004 19.3573L18.636 12.2929C18.2455 11.9024 17.6123 11.9024 17.2218 12.2929C16.8313 12.6834 16.8313 13.3166 17.2218 13.7071L23.5858 20.071L17.2218 26.435C16.8313 26.8255 16.8313 27.4587 17.2218 27.8492C17.6124 28.2397 18.2455 28.2397 18.636 27.8492L25.7016 20.7836C25.7034 20.7818 25.7053 20.78 25.7071 20.7782C25.8543 20.631 25.946 20.4493 25.9823 20.2591Z" fill="white"/>
</svg>
