<svg width="24" height="24" viewBox="0 0 24 24" fill="none" xmlns="http://www.w3.org/2000/svg">
<rect x="3" y="19" width="12" height="3" rx="1" fill="#ADB3BE"/>
<path d="M10.7779 5.53538C10.3874 5.14486 10.3874 4.51169 10.7779 4.12117L12.1921 2.70696C12.5826 2.31643 13.2158 2.31643 13.6063 2.70696L17.849 6.9496C18.2395 7.34012 18.2395 7.97329 17.849 8.36381L16.4348 9.77802C16.0442 10.1685 15.4111 10.1685 15.0205 9.77802L14.3134 10.4851L22.0916 18.2633C22.4821 18.6538 22.4821 19.287 22.0916 19.6775L20.6774 21.0917C20.2869 21.4823 19.6537 21.4823 19.2632 21.0917L11.485 13.3136L10.7779 14.0207C11.1684 14.4112 11.1685 15.0445 10.778 15.435L9.36381 16.8492C8.97329 17.2397 8.34012 17.2397 7.9496 16.8492L3.70696 12.6066C3.31643 12.216 3.31643 11.5829 3.70696 11.1924L5.12117 9.77815C5.51165 9.38766 6.14473 9.38762 6.53526 9.77802L10.7779 5.53538Z" fill="#ADB3BE"/>
</svg>
