<svg width="24" height="24" viewBox="0 0 24 24" fill="none" xmlns="http://www.w3.org/2000/svg">
<path fill-rule="evenodd" clip-rule="evenodd" d="M7 7C7 4.79086 8.79086 3 11 3C13.2091 3 15 4.79086 15 7C15 9.20914 13.2091 11 11 11C8.79086 11 7 9.20914 7 7ZM4 19C4 15.134 7.13401 12 11 12C12.4118 12 13.7259 12.4179 14.8255 13.1368C13.7108 14.0539 13 15.4439 13 17C13 18.1256 13.3719 19.1643 13.9996 20H4.8C4.35817 20 4 19.6418 4 19.2V19ZM18 19C19.1046 19 20 18.1046 20 17C20 16.8208 19.9764 16.6472 19.9323 16.482L17.482 18.9323C17.6472 18.9764 17.8208 19 18 19ZM18.518 15.0677L16.0677 17.518C16.0236 17.3528 16 17.1792 16 17C16 15.8954 16.8954 15 18 15C18.1792 15 18.3528 15.0236 18.518 15.0677ZM18 21C20.2091 21 22 19.2091 22 17C22 14.7909 20.2091 13 18 13C15.7909 13 14 14.7909 14 17C14 19.2091 15.7909 21 18 21Z" fill="#191F28"/>
</svg>
