<svg width="24" height="24" viewBox="0 0 24 24" fill="none" xmlns="http://www.w3.org/2000/svg">
<path fill-rule="evenodd" clip-rule="evenodd" d="M14.9 7.2C15.2777 7.70361 15.8705 8 16.5 8H20V18H4V8H7.5C8.12951 8 8.72229 7.70361 9.1 7.2L10 6H14L14.9 7.2ZM9.5 4C9.18524 4 8.88885 4.14819 8.7 4.4L7.5 6H4C2.89543 6 2 6.89543 2 8V18C2 19.1046 2.89543 20 4 20H20C21.1046 20 22 19.1046 22 18V8C22 6.89543 21.1046 6 20 6H16.5L15.3 4.4C15.1111 4.14819 14.8148 4 14.5 4H9.5ZM14 13C14 14.1046 13.1046 15 12 15C10.8954 15 10 14.1046 10 13C10 11.8954 10.8954 11 12 11C13.1046 11 14 11.8954 14 13ZM16 13C16 15.2091 14.2091 17 12 17C9.79086 17 8 15.2091 8 13C8 10.7909 9.79086 9 12 9C14.2091 9 16 10.7909 16 13Z" fill="black"/>
</svg>
