<svg width="24" height="24" viewBox="0 0 24 24" fill="none" xmlns="http://www.w3.org/2000/svg">
<path fill-rule="evenodd" clip-rule="evenodd" d="M5.63618 16.9494C5.24566 17.3399 5.24566 17.9731 5.63618 18.3636C6.02671 18.7541 6.65987 18.7541 7.0504 18.3636L12.0001 13.4139L16.9499 18.3636C17.3404 18.7541 17.9736 18.7541 18.3641 18.3636C18.7546 17.9731 18.7546 17.3399 18.3641 16.9494L13.4143 11.9997L18.3641 7.04988C18.7546 6.65936 18.7546 6.02619 18.3641 5.63567C17.9736 5.24514 17.3404 5.24514 16.9499 5.63567L12.0001 10.5854L7.05037 5.63568C6.65984 5.24516 6.02668 5.24516 5.63615 5.63568C5.24563 6.02621 5.24563 6.65937 5.63616 7.0499L10.5859 11.9997L5.63618 16.9494Z" fill="#191F28"/>
</svg>
