<svg width="24" height="24" viewBox="0 0 24 24" fill="none" xmlns="http://www.w3.org/2000/svg">
<path fill-rule="evenodd" clip-rule="evenodd" d="M2 8C2 5.79086 3.79086 4 6 4H18C20.2091 4 22 5.79086 22 8V14C22 16.2091 20.2091 18 18 18H17.9997V21.9999L13.9998 18H6C3.79086 18 2 16.2091 2 14V8ZM8.00015 11.9999C8.55243 11.9999 9.00015 11.5522 9.00015 10.9999C9.00015 10.4476 8.55243 9.9999 8.00015 9.9999C7.44786 9.9999 7.00015 10.4476 7.00015 10.9999C7.00015 11.5522 7.44786 11.9999 8.00015 11.9999ZM13.0001 10.9999C13.0001 11.5522 12.5524 11.9999 12.0001 11.9999C11.4479 11.9999 11.0001 11.5522 11.0001 10.9999C11.0001 10.4476 11.4479 9.9999 12.0001 9.9999C12.5524 9.9999 13.0001 10.4476 13.0001 10.9999ZM16.0001 11.9999C16.5524 11.9999 17.0001 11.5522 17.0001 10.9999C17.0001 10.4476 16.5524 9.9999 16.0001 9.9999C15.4479 9.9999 15.0001 10.4476 15.0001 10.9999C15.0001 11.5522 15.4479 11.9999 16.0001 11.9999Z" fill="#ADB3BE"/>
</svg>
