<svg width="24" height="24" viewBox="0 0 24 24" fill="none" xmlns="http://www.w3.org/2000/svg">
<rect width="24" height="24" rx="4" fill="#E5E7EC"/>
<path fill-rule="evenodd" clip-rule="evenodd" d="M9.56989 16.9203C9.82866 17.0911 10.1803 17.0626 10.4081 16.8348C10.4084 16.8346 10.4087 16.8343 10.4089 16.834L17.9506 9.29237C18.2109 9.03202 18.2109 8.60991 17.9506 8.34956C17.6902 8.08921 17.2681 8.08921 17.0078 8.34956L9.93671 15.4206L7.10829 12.5922C6.84794 12.3319 6.42583 12.3319 6.16548 12.5922C5.90513 12.8526 5.90513 13.2747 6.16548 13.535L9.46448 16.834C9.46475 16.8343 9.46503 16.8346 9.46531 16.8348C9.49785 16.8674 9.53292 16.8959 9.56989 16.9203Z" fill="white"/>
</svg>
