<svg width="24" height="24" viewBox="0 0 24 24" fill="none" xmlns="http://www.w3.org/2000/svg">
<rect width="24" height="24" rx="4" fill="#E5E7EC"/>
<path fill-rule="evenodd" clip-rule="evenodd" d="M9.56989 16.9198C9.82866 17.0906 10.1803 17.0622 10.4081 16.8344C10.4084 16.8341 10.4087 16.8338 10.4089 16.8335L17.9506 9.29188C18.2109 9.03153 18.2109 8.60942 17.9506 8.34907C17.6902 8.08872 17.2681 8.08872 17.0078 8.34907L9.93671 15.4201L7.10829 12.5917C6.84794 12.3314 6.42583 12.3314 6.16548 12.5917C5.90513 12.8521 5.90513 13.2742 6.16548 13.5345L9.46448 16.8335C9.46475 16.8338 9.46503 16.8341 9.46531 16.8344C9.49785 16.8669 9.53292 16.8954 9.56989 16.9198Z" fill="white"/>
</svg>
