<svg width="24" height="24" viewBox="0 0 24 24" fill="none" xmlns="http://www.w3.org/2000/svg">
<path fill-rule="evenodd" clip-rule="evenodd" d="M18.0408 15.7574L17.1825 17.0894L19.0266 19H11.9919L11.9101 18.9982L11.9085 18.9982C10.9784 18.9773 10.0959 18.7795 9.29246 18.4391C6.75794 17.3654 5 14.8786 5 12C5 8.14907 8.15127 5 12.0723 5C15.9934 5 19.1447 8.14907 19.1447 12C19.1447 13.3855 18.7401 14.6721 18.0408 15.7574ZM20.7014 21C21.8425 21 22.4267 19.6427 21.6375 18.8251L19.722 16.8406C20.6226 15.4429 21.1447 13.7819 21.1447 12C21.1447 7.02944 17.0828 3 12.0723 3C7.06182 3 3 7.02944 3 12C3 15.717 5.27137 18.9077 8.5123 20.2806C8.72234 20.3696 8.93645 20.451 9.15428 20.5243C10.0072 20.8116 10.9172 20.9764 11.8629 20.9976L11.8677 20.9978L11.8646 21H20.7014Z" fill="#191F28"/>
</svg>
