<svg width="24" height="24" viewBox="0 0 24 24" fill="none" xmlns="http://www.w3.org/2000/svg">
<path d="M5 21C4.45 21 3.97917 20.8042 3.5875 20.4125C3.19583 20.0208 3 19.55 3 19V5C3 4.45 3.19583 3.97917 3.5875 3.5875C3.97917 3.19583 4.45 3 5 3H19C19.55 3 20.0208 3.19583 20.4125 3.5875C20.8042 3.97917 21 4.45 21 5V19C21 19.55 20.8042 20.0208 20.4125 20.4125C20.0208 20.8042 19.55 21 19 21H5ZM5 19H19V5H5V19Z" fill="#191F28"/>
<path d="M9.71429 9.28571C9.71429 8.02335 10.7376 7 12 7C13.2624 7 14.2857 8.02335 14.2857 9.28571C14.2857 10.5481 13.2624 11.5714 12 11.5714C10.7376 11.5714 9.71429 10.5481 9.71429 9.28571Z" fill="#191F28"/>
<path d="M8 16.1429C8 13.9337 9.79086 12.1429 12 12.1429C14.2091 12.1429 16 13.9337 16 16.1429V16.2571C16 16.5096 15.7953 16.7143 15.5429 16.7143H8.45714C8.20467 16.7143 8 16.5096 8 16.2571V16.1429Z" fill="#191F28"/>
</svg>
