<svg width="24" height="24" viewBox="0 0 24 24" fill="none" xmlns="http://www.w3.org/2000/svg">
<path d="M18 21C17.7167 21 17.4792 20.9042 17.2875 20.7125C17.0958 20.5208 17 20.2833 17 20V18H15C14.7167 18 14.4792 17.9042 14.2875 17.7125C14.0958 17.5208 14 17.2833 14 17C14 16.7167 14.0958 16.4792 14.2875 16.2875C14.4792 16.0958 14.7167 16 15 16H17V14C17 13.7167 17.0958 13.4792 17.2875 13.2875C17.4792 13.0958 17.7167 13 18 13C18.2833 13 18.5208 13.0958 18.7125 13.2875C18.9042 13.4792 19 13.7167 19 14V16H21C21.2833 16 21.5208 16.0958 21.7125 16.2875C21.9042 16.4792 22 16.7167 22 17C22 17.2833 21.9042 17.5208 21.7125 17.7125C21.5208 17.9042 21.2833 18 21 18H19V20C19 20.2833 18.9042 20.5208 18.7125 20.7125C18.5208 20.9042 18.2833 21 18 21Z" fill="#191F28"/>
<path fill-rule="evenodd" clip-rule="evenodd" d="M11 3C8.79086 3 7 4.79086 7 7C7 9.20914 8.79086 11 11 11C13.2091 11 15 9.20914 15 7C15 4.79086 13.2091 3 11 3ZM11 12C7.13401 12 4 15.134 4 19V19.2C4 19.6418 4.35817 20 4.8 20H16V19H15C14.4648 19 13.9689 18.8081 13.5804 18.4196C13.1919 18.0311 13 17.5352 13 17C13 16.4648 13.1919 15.9689 13.5804 15.5804C13.9689 15.1919 14.4648 15 15 15H16V14.101C14.7295 12.8045 12.9587 12 11 12ZM17 15.3924V16H15C14.7167 16 14.4792 16.0958 14.2875 16.2875C14.0958 16.4792 14 16.7167 14 17C14 17.2833 14.0958 17.5208 14.2875 17.7125C14.4792 17.9042 14.7167 18 15 18H17V20H17.2C17.6418 20 18 19.6418 18 19.2V19C18 17.6803 17.6348 16.446 17 15.3924Z" fill="#191F28"/>
</svg>
