<svg width="24" height="24" viewBox="0 0 24 24" fill="none" xmlns="http://www.w3.org/2000/svg">
<path d="M12 4C16.4183 4 20 7.58172 20 12C20 16.4183 16.4183 20 12 20C7.91969 20 4.55286 16.9453 4.06164 12.998C3.99343 12.45 4.44771 12 5 12C5.55229 12 5.99128 12.4511 6.08227 12.9958C6.55663 15.8356 9.02556 18 12 18C15.3137 18 18 15.3137 18 12C18 8.68629 15.3137 6 12 6C10.223 6 8.62644 6.7725 7.5278 8H8C8.55228 8 9 8.44772 9 9C9 9.55228 8.55228 10 8 10H5C4.96548 10 4.93137 9.99825 4.89776 9.99484C4.3935 9.94363 4 9.51777 4 9V6C4 5.44772 4.44772 5 5 5C5.55228 5 6 5.44772 6 6V6.70834C7.46589 5.0475 9.61061 4 12 4Z" fill="#191F28"/>
<path fill-rule="evenodd" clip-rule="evenodd" d="M12 7C12.5523 7 13 7.44772 13 8V11.6379L15.2682 14.3598C15.6218 14.7841 15.5645 15.4147 15.1402 15.7682C14.7159 16.1218 14.0853 16.0645 13.7318 15.6402L11.2318 12.6402C11.082 12.4605 11 12.2339 11 12V8C11 7.44772 11.4477 7 12 7Z" fill="#191F28"/>
</svg>
