<svg width="24" height="24" viewBox="0 0 24 24" fill="none" xmlns="http://www.w3.org/2000/svg">
<path fill-rule="evenodd" clip-rule="evenodd" d="M20.3084 8.48485L12.5703 2.20343C12.4084 2.07172 12.2075 2 12.0005 2C11.7934 2 11.5926 2.07172 11.4307 2.20343L3.69164 8.48485C3.47595 8.65999 3.30174 8.88253 3.18199 9.13593C3.06224 9.38932 3.00003 9.66703 3 9.94837V18.7556C3 19.3509 3.23164 19.9217 3.64395 20.3426C4.05627 20.7635 4.61548 21 5.19859 21H10.1683V16.5562C10.1683 16.3081 10.2648 16.0703 10.4366 15.8949C10.6084 15.7195 10.8414 15.621 11.0844 15.621H12.9165C13.1595 15.621 13.3925 15.7195 13.5643 15.8949C13.7361 16.0703 13.8326 16.3081 13.8326 16.5562V21H18.8014C19.3845 21 19.9437 20.7635 20.356 20.3426C20.7684 19.9217 21 19.3509 21 18.7556V9.9493C21 9.66796 20.9378 9.39026 20.818 9.13686C20.6983 8.88347 20.5241 8.65999 20.3084 8.48485Z" fill="#191F28"/>
</svg>
