<svg width="24" height="24" viewBox="0 0 24 24" fill="none" xmlns="http://www.w3.org/2000/svg">
<rect width="24" height="24" fill="#FEE500"/>
<path d="M12 6C13.2656 6 14.4362 6.24762 15.5117 6.74285C16.5872 7.23808 17.4375 7.91149 18.0625 8.76308C18.6875 9.61464 19 10.5435 19 11.5497C19 12.5559 18.6875 13.4861 18.0625 14.3403C17.4375 15.1945 16.5885 15.8692 15.5156 16.3645C14.4427 16.8597 13.2708 17.1073 12 17.1073C11.599 17.1073 11.1849 17.0785 10.7578 17.0208C8.90363 18.3152 7.91668 18.9703 7.79688 18.986C7.73958 19.007 7.68488 19.0044 7.63281 18.9782C7.61197 18.9625 7.59635 18.9415 7.58593 18.9153C7.57551 18.8891 7.57031 18.8655 7.57031 18.8445V18.8131C7.60158 18.6087 7.83854 17.7571 8.28125 16.2583C7.27604 15.7553 6.47786 15.0884 5.88672 14.2578C5.29557 13.4272 5 12.5245 5 11.5497C5 10.5435 5.3125 9.61464 5.9375 8.76308C6.5625 7.91149 7.41276 7.23808 8.48828 6.74285C9.5638 6.24762 10.7344 6 12 6Z" fill="#181503"/>
</svg>
