<svg width="24" height="24" viewBox="0 0 24 24" fill="none" xmlns="http://www.w3.org/2000/svg">
<path fill-rule="evenodd" clip-rule="evenodd" d="M10.0567 15L10.1135 14.9987C12.8219 14.9388 14.9998 12.7235 14.9998 10C14.9998 7.23858 12.7612 5 9.99979 5C7.23837 5 4.99979 7.23858 4.99979 10C4.99979 10.993 5.28719 11.9127 5.78262 12.6878L6.6294 14.0125L5.68388 15H10.0567ZM3.34184 17C2.46135 17 2.01061 15.9444 2.61956 15.3084L4.09747 13.7649C3.40257 12.6778 2.99979 11.3859 2.99979 10C2.99979 6.13401 6.1338 3 9.99979 3C13.8658 3 16.9998 6.13401 16.9998 10C16.9998 12.891 15.2473 15.3726 12.7466 16.4405C11.95 16.7807 11.0774 16.9774 10.1614 16.9982L10.16 16.9982L10.1577 16.9983L10.16 17H3.34184ZM8 10C8 10.5523 7.55228 11 7 11C6.44772 11 6 10.5523 6 10C6 9.44772 6.44772 9 7 9C7.55228 9 8 9.44772 8 10ZM10 11C10.5523 11 11 10.5523 11 10C11 9.44772 10.5523 9 10 9C9.44772 9 9 9.44772 9 10C9 10.5523 9.44772 11 10 11ZM14 10C14 10.5523 13.5523 11 13 11C12.4477 11 12 10.5523 12 10C12 9.44772 12.4477 9 13 9C13.5523 9 14 9.44772 14 10ZM18.0001 10.0001C18.0001 10.3146 17.982 10.6248 17.9467 10.9298C18.6069 11.7772 19.0001 12.8427 19.0001 14.0001C19.0001 14.9931 18.7127 15.9129 18.2173 16.6879L17.3705 18.0127L18.3161 19.0001H14.0001H13.9432L13.8865 18.9989C12.7731 18.9742 11.7494 18.5854 10.9298 17.9467C10.6248 17.982 10.3146 18.0001 10.0001 18.0001C9.34668 18.0001 8.7115 17.9218 8.10352 17.774C8.85795 18.9503 9.95476 19.8861 11.2533 20.4407C12.0499 20.7808 12.9225 20.9776 13.8385 20.9983L13.8399 20.9983L13.8422 20.9984L13.8399 21.0001H13.8422H13.8435H14.0001H17.1721H20.6581C21.5386 21.0001 21.9893 19.9445 21.3804 19.3085L19.9025 17.7651C20.5974 16.678 21.0001 15.3861 21.0001 14.0001C21.0001 11.5239 19.7143 9.34793 17.774 8.10352C17.9218 8.71151 18.0001 9.34668 18.0001 10.0001Z" fill="#191F28"/>
</svg>
