<svg width="24" height="24" viewBox="0 0 24 24" fill="none" xmlns="http://www.w3.org/2000/svg">
<path fill-rule="evenodd" clip-rule="evenodd" d="M10.1577 16.9983C13.9508 16.9143 16.9998 13.8132 16.9998 10C16.9998 6.13401 13.8658 3 9.99979 3C6.1338 3 2.99979 6.13401 2.99979 10C2.99979 11.3859 3.40257 12.6778 4.09747 13.7649L2.61956 15.3084C2.01061 15.9444 2.46135 17 3.34184 17H9.99979H10.16L10.1577 16.9983ZM8 10C8 10.5523 7.55229 11 7 11C6.44772 11 6 10.5523 6 10C6 9.44772 6.44772 9 7 9C7.55229 9 8 9.44772 8 10ZM10 11C10.5523 11 11 10.5523 11 10C11 9.44772 10.5523 9 10 9C9.44772 9 9 9.44772 9 10C9 10.5523 9.44772 11 10 11ZM14 10C14 10.5523 13.5523 11 13 11C12.4477 11 12 10.5523 12 10C12 9.44772 12.4477 9 13 9C13.5523 9 14 9.44772 14 10ZM17.9999 10.0003C17.9999 14.4186 14.4182 18.0003 9.9999 18.0003C9.34652 18.0003 8.71143 17.922 8.10352 17.7742C9.32141 19.6732 11.4315 20.9452 13.8422 20.9986L13.8399 21.0003H14.0001H20.6581C21.5385 21.0003 21.9893 19.9447 21.3803 19.3087L19.9024 17.7652C20.5973 16.6781 21.0001 15.3862 21.0001 14.0003C21.0001 11.5239 19.7142 9.3479 17.7737 8.10352C17.9215 8.71155 17.9999 9.34678 17.9999 10.0003Z" fill="#191F28"/>
</svg>
