<svg width="24" height="24" viewBox="0 0 24 24" fill="none" xmlns="http://www.w3.org/2000/svg">
<mask id="path-1-inside-1_4_1030" fill="white">
<path fill-rule="evenodd" clip-rule="evenodd" d="M20 10C20 5.58172 16.4183 2 12 2C7.58176 2 4.00004 5.58172 4.00004 10V13.802C4.00004 13.9337 3.98703 14.065 3.9612 14.1942L3.47848 16.6078C3.23097 17.8454 4.17755 19 5.43964 19H9H15H18.5604C19.8225 19 20.7691 17.8454 20.5216 16.6078L20.0389 14.1942C20.013 14.065 20 13.9337 20 13.802V10ZM12 22C10.6938 22 9.58254 21.1652 9.17071 20H14.8293C14.4175 21.1652 13.3062 22 12 22Z"/>
</mask>
<path d="M3.9612 14.1942L5.92236 14.5864L3.9612 14.1942ZM3.47848 16.6078L1.51732 16.2155L3.47848 16.6078ZM20.5216 16.6078L18.5604 17V17L20.5216 16.6078ZM20.0389 14.1942L22 13.802V13.802L20.0389 14.1942ZM9.17071 20V18H6.34256L7.28503 20.6665L9.17071 20ZM14.8293 20L16.715 20.6665L17.6574 18H14.8293V20ZM12 4C15.3137 4 18 6.68629 18 10H22C22 4.47715 17.5229 0 12 0V4ZM6.00004 10C6.00004 6.68629 8.68633 4 12 4V0C6.47719 0 2.00004 4.47715 2.00004 10H6.00004ZM6.00004 13.802V10H2.00004V13.802H6.00004ZM5.92236 14.5864C5.97402 14.3281 6.00004 14.0654 6.00004 13.802H2.00004L2.00004 13.802L5.92236 14.5864ZM5.43964 17L5.92236 14.5864L2.00004 13.802L1.51732 16.2155L5.43964 17ZM5.43964 17L5.43964 17L1.51732 16.2155C1.02229 18.6907 2.91546 21 5.43964 21V17ZM9 17H5.43964V21H9V17ZM9 21H15V17H9V21ZM18.5604 17H15V21H18.5604V17ZM18.5604 17L18.5604 17V21C21.0846 21 22.9778 18.6907 22.4827 16.2155L18.5604 17ZM18.0777 14.5864L18.5604 17L22.4827 16.2155L22 13.802L18.0777 14.5864ZM18 13.802C18 14.0654 18.0261 14.3281 18.0777 14.5864L22 13.802V13.802H18ZM18 10V13.802H22V10H18ZM7.28503 20.6665C7.97047 22.6058 9.81984 24 12 24V20C11.5677 20 11.1946 19.7246 11.0564 19.3335L7.28503 20.6665ZM14.8293 18H9.17071V22H14.8293V18ZM12 24C14.1802 24 16.0295 22.6058 16.715 20.6665L12.9436 19.3335C12.8054 19.7246 12.4323 20 12 20V24Z" fill="#191F28" mask="url(#path-1-inside-1_4_1030)"/>
</svg>
