<svg width="24" height="24" viewBox="0 0 24 24" fill="none" xmlns="http://www.w3.org/2000/svg">
<mask id="path-1-inside-1_196_958" fill="white">
<path fill-rule="evenodd" clip-rule="evenodd" d="M19.9995 10C19.9995 5.58172 16.4178 2 11.9995 2C7.58127 2 3.99955 5.58172 3.99955 10V13.802C3.99955 13.9337 3.98654 14.065 3.96071 14.1942L3.47799 16.6078C3.23048 17.8454 4.17706 19 5.43916 19H8.99951H14.9995H18.5599C19.822 19 20.7686 17.8454 20.5211 16.6078L20.0384 14.1942C20.0126 14.065 19.9995 13.9337 19.9995 13.802V10ZM11.9995 22C10.6933 22 9.58205 21.1652 9.17022 20H14.8288C14.417 21.1652 13.3057 22 11.9995 22Z"/>
</mask>
<path d="M3.99955 10H5.99955H3.99955ZM3.96071 14.1942L5.92187 14.5864L3.96071 14.1942ZM3.47799 16.6078L1.51683 16.2155L3.47799 16.6078ZM20.5211 16.6078L18.5599 17V17L20.5211 16.6078ZM20.0384 14.1942L21.9995 13.802V13.802L20.0384 14.1942ZM9.17022 20V18H6.34207L7.28454 20.6665L9.17022 20ZM14.8288 20L16.7145 20.6665L17.657 18H14.8288V20ZM11.9995 4C15.3133 4 17.9995 6.68629 17.9995 10H21.9995C21.9995 4.47715 17.5224 0 11.9995 0V4ZM5.99955 10C5.99955 6.68629 8.68584 4 11.9995 4V0C6.4767 0 1.99955 4.47715 1.99955 10H5.99955ZM5.99955 13.802V10H1.99955V13.802H5.99955ZM5.92187 14.5864C5.97353 14.3281 5.99955 14.0654 5.99955 13.802H1.99955L1.99955 13.802L5.92187 14.5864ZM5.43916 17L5.92187 14.5864L1.99955 13.802L1.51683 16.2155L5.43916 17ZM5.43916 17L5.43916 17L1.51683 16.2155C1.0218 18.6907 2.91497 21 5.43916 21V17ZM8.99951 17H5.43916V21H8.99951V17ZM8.99951 21H14.9995V17H8.99951V21ZM18.5599 17H14.9995V21H18.5599V17ZM18.5599 17L18.5599 17V21C21.0841 21 22.9773 18.6907 22.4823 16.2155L18.5599 17ZM18.0772 14.5864L18.5599 17L22.4823 16.2155L21.9995 13.802L18.0772 14.5864ZM17.9995 13.802C17.9995 14.0654 18.0256 14.3281 18.0772 14.5864L21.9995 13.802V13.802H17.9995ZM17.9995 10V13.802H21.9995V10H17.9995ZM7.28454 20.6665C7.96998 22.6058 9.81936 24 11.9995 24V20C11.5672 20 11.1941 19.7246 11.0559 19.3335L7.28454 20.6665ZM14.8288 18H9.17022V22H14.8288V18ZM11.9995 24C14.1797 24 16.029 22.6058 16.7145 20.6665L12.9431 19.3335C12.8049 19.7246 12.4318 20 11.9995 20V24Z" fill="#ADB3BE" mask="url(#path-1-inside-1_196_958)"/>
</svg>
