<svg width="24" height="24" viewBox="0 0 24 24" fill="none" xmlns="http://www.w3.org/2000/svg">
<mask id="path-1-inside-1_223_10731" fill="white">
<path fill-rule="evenodd" clip-rule="evenodd" d="M4 4C4 2.89543 4.89543 2 6 2H14.5707C14.8448 2 15.1069 2.11252 15.2957 2.31125L19.725 6.97368C19.9016 7.15953 20 7.40609 20 7.66243V20C20 21.1046 19.1046 22 18 22H6C4.89543 22 4 21.1046 4 20V4ZM8.5 11C7.94772 11 7.5 11.4477 7.5 12C7.5 12.5523 7.94772 13 8.5 13H15.5C16.0523 13 16.5 12.5523 16.5 12C16.5 11.4477 16.0523 11 15.5 11H8.5ZM7.5 16C7.5 15.4477 7.94772 15 8.5 15H15.5C16.0523 15 16.5 15.4477 16.5 16C16.5 16.5523 16.0523 17 15.5 17H8.5C7.94772 17 7.5 16.5523 7.5 16ZM13.5 3.5V7.5C13.5 8.05228 13.9477 8.5 14.5 8.5H18.5L13.5 3.5Z"/>
</mask>
<path fill-rule="evenodd" clip-rule="evenodd" d="M4 4C4 2.89543 4.89543 2 6 2H14.5707C14.8448 2 15.1069 2.11252 15.2957 2.31125L19.725 6.97368C19.9016 7.15953 20 7.40609 20 7.66243V20C20 21.1046 19.1046 22 18 22H6C4.89543 22 4 21.1046 4 20V4ZM8.5 11C7.94772 11 7.5 11.4477 7.5 12C7.5 12.5523 7.94772 13 8.5 13H15.5C16.0523 13 16.5 12.5523 16.5 12C16.5 11.4477 16.0523 11 15.5 11H8.5ZM7.5 16C7.5 15.4477 7.94772 15 8.5 15H15.5C16.0523 15 16.5 15.4477 16.5 16C16.5 16.5523 16.0523 17 15.5 17H8.5C7.94772 17 7.5 16.5523 7.5 16ZM13.5 3.5V7.5C13.5 8.05228 13.9477 8.5 14.5 8.5H18.5L13.5 3.5Z" fill="#191F28"/>
<path d="M15.2957 2.31125L13.8457 3.68875L13.8457 3.68875L15.2957 2.31125ZM19.725 6.97368L21.175 5.59619L21.175 5.59618L19.725 6.97368ZM13.5 3.5L14.9142 2.08579L11.5 -1.32843V3.5H13.5ZM18.5 8.5V10.5H23.3284L19.9142 7.08579L18.5 8.5ZM6 0C3.79086 0 2 1.79086 2 4H6V4V0ZM14.5707 0H6V4H14.5707V0ZM16.7457 0.933755C16.1793 0.337558 15.393 0 14.5707 0V4C14.2966 4 14.0345 3.88748 13.8457 3.68875L16.7457 0.933755ZM21.175 5.59618L16.7457 0.933751L13.8457 3.68875L18.275 8.35118L21.175 5.59618ZM22 7.66243C22 6.8934 21.7047 6.15373 21.175 5.59619L18.275 8.35118C18.0984 8.16533 18 7.91878 18 7.66243H22ZM22 20V7.66243H18V20H22ZM18 24C20.2091 24 22 22.2091 22 20H18V24ZM6 24H18V20H6V24ZM2 20C2 22.2091 3.79086 24 6 24V20H2ZM2 4V20H6V4H2ZM9.5 12C9.5 12.5523 9.05228 13 8.5 13V9C6.84315 9 5.5 10.3431 5.5 12H9.5ZM8.5 11C9.05228 11 9.5 11.4477 9.5 12H5.5C5.5 13.6569 6.84315 15 8.5 15V11ZM15.5 11H8.5V15H15.5V11ZM14.5 12C14.5 11.4477 14.9477 11 15.5 11V15C17.1569 15 18.5 13.6569 18.5 12H14.5ZM15.5 13C14.9477 13 14.5 12.5523 14.5 12H18.5C18.5 10.3431 17.1569 9 15.5 9V13ZM8.5 13H15.5V9H8.5V13ZM8.5 13C6.84315 13 5.5 14.3431 5.5 16H9.5C9.5 16.5523 9.05228 17 8.5 17V13ZM15.5 13H8.5V17H15.5V13ZM18.5 16C18.5 14.3431 17.1569 13 15.5 13V17C14.9477 17 14.5 16.5523 14.5 16H18.5ZM15.5 19C17.1569 19 18.5 17.6569 18.5 16H14.5C14.5 15.4477 14.9477 15 15.5 15V19ZM8.5 19H15.5V15H8.5V19ZM5.5 16C5.5 17.6569 6.84315 19 8.5 19V15C9.05228 15 9.5 15.4477 9.5 16H5.5ZM15.5 7.5V3.5H11.5V7.5H15.5ZM14.5 6.5C15.0523 6.5 15.5 6.94771 15.5 7.5H11.5C11.5 9.15685 12.8431 10.5 14.5 10.5V6.5ZM18.5 6.5H14.5V10.5H18.5V6.5ZM12.0858 4.91421L17.0858 9.91421L19.9142 7.08579L14.9142 2.08579L12.0858 4.91421Z" fill="#191F28" mask="url(#path-1-inside-1_223_10731)"/>
</svg>
