<svg width="24" height="24" viewBox="0 0 24 24" fill="none" xmlns="http://www.w3.org/2000/svg">
<path d="M16.8143 10.9292L12.4985 5.23618C12.4426 5.16285 12.3702 5.10333 12.287 5.06234C12.2038 5.02134 12.112 5 12.0189 5C11.9259 5 11.8341 5.02134 11.7509 5.06234C11.6676 5.10333 11.5952 5.16285 11.5394 5.23618L7.18364 10.9292C7.10386 11.0343 6.99082 11.1102 6.86238 11.1449C6.73393 11.1797 6.5974 11.1713 6.47433 11.1211L2.84286 9.64497C2.74369 9.60155 2.63442 9.58547 2.5267 9.59844C2.41898 9.6114 2.31685 9.65294 2.23121 9.7186C2.14558 9.78427 2.07965 9.87161 2.04045 9.97129C2.00126 10.071 1.99028 10.1793 2.00868 10.2846L3.40731 17.5079C3.43088 17.6453 3.50295 17.77 3.61081 17.86C3.71867 17.95 3.85536 17.9996 3.99674 18H19.9912C20.1325 17.9996 20.2692 17.95 20.3771 17.86C20.485 17.77 20.557 17.6453 20.5806 17.5079L21.9892 10.2846C22.0098 10.1794 22.0008 10.0706 21.9634 9.97002C21.926 9.86939 21.8615 9.7807 21.7768 9.71345C21.6921 9.6462 21.5904 9.60292 21.4826 9.58825C21.3748 9.57359 21.2651 9.58809 21.165 9.6302L17.5336 11.1064C17.4109 11.1606 17.2732 11.1726 17.1428 11.1405C17.0123 11.1084 16.8966 11.0339 16.8143 10.9292Z" fill="black"/>
</svg>
