<svg width="24" height="24" viewBox="0 0 24 24" fill="none" xmlns="http://www.w3.org/2000/svg">
<path fill-rule="evenodd" clip-rule="evenodd" d="M6.98581 9.05579L3.61837 18.4172C3.25224 18.2342 2.99982 17.8554 3 17.416V5.118C3 4.50068 3.49763 4 4.11118 4H9.03373C9.32856 4 9.61098 4.11776 9.81952 4.32757L11.6559 6.17544H19.5537C20.1672 6.17544 20.6649 6.67612 20.6649 7.29344V8.31828H8.03088C7.5627 8.31828 7.1449 8.61306 6.98581 9.05579ZM22.4444 9.99554C22.6253 9.99554 22.7952 10.0842 22.8992 10.2335C23.0031 10.3826 23.0283 10.5734 22.9665 10.7444L20.1298 18.6312C20.0502 18.8525 19.8413 18.9999 19.6074 18.9999H5.97295C5.79202 18.9999 5.62219 18.9112 5.51811 18.762C5.4144 18.6129 5.38903 18.4221 5.45051 18.251L8.28736 10.3643C8.36681 10.1429 8.57571 9.99554 8.8098 9.99554H22.4444Z" fill="black"/>
</svg>
