<svg width="24" height="24" viewBox="0 0 24 24" fill="none" xmlns="http://www.w3.org/2000/svg">
<path fill-rule="evenodd" clip-rule="evenodd" d="M11 3C15.4183 3 19 6.58172 19 11C19 12.8487 18.3729 14.5509 17.3199 15.9056L21.3641 19.9497C21.7546 20.3403 21.7546 20.9734 21.3641 21.364C20.9735 21.7545 20.3404 21.7545 19.9498 21.364L15.9057 17.3198C14.551 18.3729 12.8487 19 11 19C6.58172 19 3 15.4183 3 11C3 6.58172 6.58172 3 11 3ZM11 5C7.68629 5 5 7.68629 5 11C5 14.3137 7.68629 17 11 17C14.3137 17 17 14.3137 17 11C17 7.68629 14.3137 5 11 5Z" fill="#ADB3BE"/>
</svg>
