<svg width="24" height="24" viewBox="0 0 24 24" fill="none" xmlns="http://www.w3.org/2000/svg">
<path d="M13.516 21H10.4786C10.3098 21 10.1602 20.9475 10.0299 20.8425C9.89946 20.7375 9.81892 20.6025 9.78824 20.4375L9.42006 18.165C9.12859 18.06 8.82178 17.9175 8.49962 17.7375C8.17747 17.5575 7.89367 17.37 7.64822 17.175L5.5082 18.1425C5.33945 18.2175 5.1707 18.2288 5.00196 18.1763C4.83321 18.1238 4.70281 18.015 4.61077 17.85L3.09204 15.2175C3 15.0675 2.97699 14.91 3.02301 14.745C3.06903 14.58 3.16108 14.445 3.29914 14.34L5.27809 12.9225C5.24741 12.7875 5.22823 12.6337 5.22056 12.4613C5.21289 12.2888 5.20905 12.135 5.20905 12C5.20905 11.865 5.21289 11.7113 5.22056 11.5388C5.22823 11.3663 5.24741 11.2125 5.27809 11.0775L3.29914 9.66C3.16108 9.555 3.06903 9.42 3.02301 9.255C2.97699 9.09 3 8.9325 3.09204 8.7825L4.61077 6.15C4.70281 5.985 4.83321 5.87625 5.00196 5.82375C5.1707 5.77125 5.33945 5.7825 5.5082 5.8575L7.64822 6.825C7.89367 6.63 8.17747 6.4425 8.49962 6.2625C8.82178 6.0825 9.12859 5.9475 9.42006 5.8575L9.78824 3.5625C9.81892 3.3975 9.89946 3.2625 10.0299 3.1575C10.1602 3.0525 10.3098 3 10.4786 3H13.516C13.6848 3 13.8343 3.0525 13.9647 3.1575C14.0951 3.2625 14.1757 3.3975 14.2063 3.5625L14.5745 5.835C14.866 5.94 15.1766 6.07875 15.5065 6.25125C15.8363 6.42375 16.1163 6.615 16.3464 6.825L18.4864 5.8575C18.6551 5.7825 18.8239 5.77125 18.9926 5.82375C19.1614 5.87625 19.2918 5.985 19.3838 6.15L20.9025 8.76C20.9946 8.91 21.0214 9.07125 20.9831 9.24375C20.9447 9.41625 20.8488 9.555 20.6954 9.66L18.7165 11.0325C18.7472 11.1825 18.7664 11.3438 18.774 11.5163C18.7817 11.6888 18.7855 11.85 18.7855 12C18.7855 12.15 18.7817 12.3075 18.774 12.4725C18.7664 12.6375 18.7472 12.795 18.7165 12.945L20.6954 14.34C20.8335 14.445 20.9256 14.58 20.9716 14.745C21.0176 14.91 20.9946 15.0675 20.9025 15.2175L19.3838 17.85C19.2918 18.015 19.1614 18.1238 18.9926 18.1763C18.8239 18.2288 18.6551 18.2175 18.4864 18.1425L16.3464 17.175C16.1009 17.37 15.821 17.5613 15.5065 17.7488C15.192 17.9363 14.8813 18.075 14.5745 18.165L14.2063 20.4375C14.1757 20.6025 14.0951 20.7375 13.9647 20.8425C13.8343 20.9475 13.6848 21 13.516 21ZM11.9973 14.925C12.8257 14.925 13.5314 14.64 14.1143 14.07C14.6972 13.5 14.9887 12.81 14.9887 12C14.9887 11.19 14.6972 10.5 14.1143 9.93C13.5314 9.36 12.8257 9.075 11.9973 9.075C11.1689 9.075 10.4632 9.36 9.88028 9.93C9.29734 10.5 9.00587 11.19 9.00587 12C9.00587 12.81 9.29734 13.5 9.88028 14.07C10.4632 14.64 11.1689 14.925 11.9973 14.925Z" fill="#191F28"/>
</svg>
