<svg width="24" height="24" viewBox="0 0 24 24" fill="none" xmlns="http://www.w3.org/2000/svg">
<path fill-rule="evenodd" clip-rule="evenodd" d="M8.46288 5.1228L11.2307 2.35499C11.411 2.14159 11.6792 2.00476 11.9794 2.00021C12.0733 1.99829 12.1674 2.00953 12.2588 2.03392C12.4232 2.0777 12.5787 2.16409 12.7077 2.29308L15.5385 5.12386C15.929 5.51439 15.929 6.14755 15.5385 6.53808C15.148 6.9286 14.5148 6.9286 14.1243 6.53808L12.9948 5.40861L12.9948 13.0001C12.9948 13.5524 12.5471 14.0001 11.9948 14.0001C11.4425 14.0001 10.9948 13.5524 10.9948 13.0001L10.9948 5.41929L9.87709 6.53701C9.48656 6.92754 8.8534 6.92754 8.46288 6.53701C8.07235 6.14649 8.07235 5.51332 8.46288 5.1228ZM17 10.0001H15V8.00009H17C18.1046 8.00009 19 8.89552 19 10.0001V18.0001C19 19.1047 18.1046 20.0001 17 20.0001H7C5.89543 20.0001 5 19.1047 5 18.0001V10.0001C5 8.89552 5.89543 8.00009 7 8.00009H9V10.0001H7L7 18.0001H17V10.0001Z" fill="#191F28"/>
</svg>
