<svg width="24" height="24" viewBox="0 0 24 24" fill="none" xmlns="http://www.w3.org/2000/svg">
<path fill-rule="evenodd" clip-rule="evenodd" d="M3 6C3 4.89543 3.89543 4 5 4H19C20.1046 4 21 4.89543 21 6V18C21 19.1046 20.1046 20 19 20H5C3.89543 20 3 19.1046 3 18V6ZM5 6.5C5 6.22386 5.22386 6 5.5 6H18.5C18.7761 6 19 6.22386 19 6.5V9H5V6.5ZM14.25 14.433C14.5833 14.2406 14.5833 13.7594 14.25 13.567L11.25 11.8349C10.9167 11.6425 10.5 11.883 10.5 12.2679V15.7321C10.5 16.117 10.9167 16.3575 11.25 16.1651L14.25 14.433Z" fill="#191F28"/>
<rect x="9" y="6" width="1" height="3" fill="#191F28"/>
<rect x="14" y="6" width="1" height="3" fill="#191F28"/>
</svg>
