<svg width="24" height="24" viewBox="0 0 24 24" fill="none" xmlns="http://www.w3.org/2000/svg">
<path d="M11.1264 2.53974C11.4837 1.82009 12.5163 1.82009 12.8736 2.53974L15.2091 7.24303C15.351 7.5288 15.6253 7.72688 15.9426 7.7727L21.1648 8.52691C21.9639 8.64231 22.2829 9.61829 21.7047 10.1785L17.9259 13.8395C17.6963 14.0619 17.5915 14.3824 17.6457 14.6965L18.5378 19.8659C18.6743 20.6569 17.839 21.2601 17.1243 20.8866L12.4533 18.446C12.1695 18.2977 11.8305 18.2977 11.5467 18.446L6.87575 20.8866C6.16104 21.2601 5.32573 20.6569 5.46223 19.8659L6.35429 14.6965C6.40849 14.3824 6.30372 14.0619 6.07411 13.8395L2.29526 10.1785C1.71706 9.61829 2.03612 8.64231 2.83518 8.52691L8.05742 7.7727C8.37473 7.72688 8.64903 7.5288 8.79094 7.24303L11.1264 2.53974Z" fill="#191F28"/>
</svg>
