<svg width="24" height="24" viewBox="0 0 24 24" fill="none" xmlns="http://www.w3.org/2000/svg">
<path fill-rule="evenodd" clip-rule="evenodd" d="M7 4.5V5H4C3.44772 5 3 5.44772 3 6C3 6.55228 3.44772 7 4 7H7H17H20C20.5523 7 21 6.55228 21 6C21 5.44772 20.5523 5 20 5H17V4.5C17 3.11929 15.8807 2 14.5 2H9.5C8.11929 2 7 3.11929 7 4.5ZM15 5V4.5C15 4.22386 14.7761 4 14.5 4H9.5C9.22386 4 9 4.22386 9 4.5V5H15ZM10 17C9.44771 17 9 16.5523 9 16L9 9C9 8.44772 9.44772 8 10 8C10.5523 8 11 8.44772 11 9L11 16C11 16.5523 10.5523 17 10 17ZM13 16C13 16.5523 13.4477 17 14 17C14.5523 17 15 16.5523 15 16L15 9C15 8.44772 14.5523 8 14 8C13.4477 8 13 8.44772 13 9L13 16ZM6 8C6.55228 8 7 8.44772 7 9V18C7 18.5523 7.44772 19 8 19H16C16.5523 19 17 18.5523 17 18V9C17 8.44772 17.4477 8 18 8C18.5523 8 19 8.44772 19 9V18C19 19.6569 17.6569 21 16 21H8C6.34315 21 5 19.6569 5 18V9C5 8.44772 5.44772 8 6 8Z" fill="#191F28"/>
</svg>
