<svg width="24" height="24" viewBox="0 0 24 24" fill="none" xmlns="http://www.w3.org/2000/svg">
<path fill-rule="evenodd" clip-rule="evenodd" d="M6 3.5625C6 3.25184 6.25184 3 6.5625 3H17.4375C17.7482 3 18 3.25184 18 3.5625C18 3.87316 17.7482 4.125 17.4375 4.125H6.5625C6.25184 4.125 6 3.87316 6 3.5625ZM4 5.8125C4 5.50184 4.25184 5.25 4.5625 5.25H19.4375C19.7482 5.25 20 5.50184 20 5.8125C20 6.12316 19.7482 6.375 19.4375 6.375H4.5625C4.25184 6.375 4 6.12316 4 5.8125ZM1 9.5C1 8.39543 1.89543 7.5 3 7.5H21C22.1046 7.5 23 8.39543 23 9.5V18.5C23 19.6046 22.1046 20.5 21 20.5H3C1.89543 20.5 1 19.6046 1 18.5V9.5ZM3.2002 11.5003C3.2002 10.948 3.64791 10.5003 4.2002 10.5003H9.2002C9.75248 10.5003 10.2002 10.948 10.2002 11.5003V16.5003C10.2002 17.0526 9.75248 17.5003 9.2002 17.5003H4.2002C3.64791 17.5003 3.2002 17.0526 3.2002 16.5003V11.5003ZM12 12.6974C12 12.3384 12.291 12.0474 12.65 12.0474H19.05C19.409 12.0474 19.7 12.3384 19.7 12.6974C19.7 13.0564 19.409 13.3474 19.05 13.3474H12.65C12.291 13.3474 12 13.0564 12 12.6974ZM12.65 14.6485C12.291 14.6485 12 14.9396 12 15.2985C12 15.6575 12.291 15.9485 12.65 15.9485H20.15C20.509 15.9485 20.8 15.6575 20.8 15.2985C20.8 14.9396 20.509 14.6485 20.15 14.6485H12.65Z" fill="#191F28"/>
</svg>
