<svg width="24" height="24" viewBox="0 0 24 24" fill="none" xmlns="http://www.w3.org/2000/svg">
<path fill-rule="evenodd" clip-rule="evenodd" d="M14 6V11C14 12.1046 13.1046 13 12 13C10.8954 13 10 12.1046 10 11V6C10 4.89543 10.8954 4 12 4C13.1046 4 14 4.89543 14 6ZM8 6C8 3.79086 9.79086 2 12 2C14.2091 2 16 3.79086 16 6V11C16 13.2091 14.2091 15 12 15C9.79086 15 8 13.2091 8 11V6ZM7 11C7 10.4477 6.55228 10 6 10C5.44772 10 5 10.4477 5 11C5 14.5265 7.60771 17.4439 11 17.9291V19.5H9C8.44772 19.5 8 19.9477 8 20.5C8 21.0523 8.44772 21.5 9 21.5H15C15.5523 21.5 16 21.0523 16 20.5C16 19.9477 15.5523 19.5 15 19.5H13V17.9291C16.3923 17.4439 19 14.5265 19 11C19 10.4477 18.5523 10 18 10C17.4477 10 17 10.4477 17 11C17 13.7614 14.7614 16 12 16C9.23858 16 7 13.7614 7 11Z" fill="#191F28"/>
</svg>
